Coordinates
version=1
nRows=26
nColumns=24
inDegrees=yes

Units are S.I. units (second, meters, Newtons, ...)
Angles are in degrees.

endheader
time	pelvis_tilt	pelvis_list	pelvis_rotation	pelvis_tx	pelvis_ty	pelvis_tz	hip_flexion_r	hip_adduction_r	hip_rotation_r	knee_angle_r	ankle_angle_r	subtalar_angle_r	mtp_angle_r	hip_flexion_l	hip_adduction_l	hip_rotation_l	knee_angle_l	ankle_angle_l	subtalar_angle_l	mtp_angle_l	lumbar_extension	lumbar_bending	lumbar_rotation
      5.66000000	      0.53590258	     -6.40033061	     -4.77856595	     -0.69402499	      0.92070959	      0.20805215	    -22.26623876	      8.29619092	      6.97121377	     -5.31669074	     15.16349363	      8.01219252	      0.00000000	     25.80704016	     -6.22180574	     -2.91407171	     -5.25443038	      4.72321901	     -5.07296585	      0.00000000	    -27.68981999	      4.18657519	      9.50083480
      5.67000000	      0.72874932	     -5.89648537	     -4.45962678	     -0.67894693	      0.91942223	      0.20659504	    -22.59145654	      7.68724442	      6.01650005	     -6.70231340	     14.97836225	      9.03182970	      0.00000000	     26.11980887	     -5.22795663	     -1.71877517	     -7.41285014	      4.01407130	     -6.39800805	      0.00000000	    -27.82144508	      3.50394429	      9.03906756
      5.68000000	      0.91957723	     -5.27491941	     -4.11449460	     -0.66370851	      0.91840547	      0.20505945	    -22.80667651	      6.96589368	      4.98546687	     -8.26610570	     14.61777909	     10.07139021	      0.00000000	     26.43375574	     -4.08590509	     -0.42066355	     -9.71077819	      2.87146083	     -7.79838014	      0.00000000	    -27.94543520	      2.69180026	      8.49704927
      5.69000000	      1.14045528	     -4.57053990	     -3.73296107	     -0.64836330	      0.91774863	      0.20347407	    -22.92219414	      6.16632671	      3.79192874	    -10.04650124	     13.99639214	     11.15671640	      0.00000000	     26.70412203	     -2.83657160	      0.82193905	    -12.04980840	      1.42278135	     -9.16495660	      0.00000000	    -28.12241893	      1.79170023	      7.88182720
      5.70000000	      1.44558576	     -3.83280737	     -3.33434271	     -0.63296289	      0.91751183	      0.20184318	    -22.97611754	      5.31159470	      2.43148042	    -12.07854785	     13.06423493	     12.33719350	      0.00000000	     26.85844291	     -1.55077788	      1.89442926	    -14.37642819	     -0.05220341	    -10.39297100	      0.00000000	    -28.43702384	      0.86431210	      7.29796591
      5.71000000	      1.86583834	     -3.01476309	     -2.97382283	     -0.61737866	      0.91773705	      0.20041305	    -22.99804150	      4.34086768	      1.07343126	    -14.37924446	     11.73393368	     13.47751530	      0.00000000	     26.78625686	     -0.23869911	      2.70356507	    -16.57234636	     -1.27607413	    -11.38773913	      0.00000000	    -28.89735321	     -0.20258125	      6.66210904
      5.72000000	      2.16222071	     -2.28154088	     -2.69000455	     -0.60182549	      0.91804212	      0.19913295	    -22.64796560	      3.39392807	     -0.35498377	    -17.07558126	     10.00017484	     14.67393497	      0.00000000	     26.77803530	      0.90695997	      3.25682575	    -18.70124313	     -1.98657596	    -12.07175290	      0.00000000	    -29.25743829	     -1.19238314	      6.16518570
      5.73000000	      2.51154519	     -1.53787163	     -2.48894420	     -0.58619762	      0.91866840	      0.19804246	    -22.14530920	      2.35112971	     -1.74345894	    -20.06983357	      7.70477792	     15.82004542	      0.00000000	     26.56864299	      1.97664550	      3.48925221	    -20.63858805	     -2.12870809	    -12.56150501	      0.00000000	    -29.69602319	     -2.21624511	      5.70353125
      5.74000000	      2.74674596	     -0.84382944	     -2.44895093	     -0.57069414	      0.91936232	      0.19727665	    -21.25014747	      1.25566152	     -2.95883578	    -23.40876757	      4.86899611	     16.77951009	      0.00000000	     26.35596634	      2.85889315	      3.36222984	    -22.42126440	     -1.57223766	    -12.66664559	      0.00000000	    -30.03188023	     -3.24069364	      5.39536154
      5.75000000	      2.93563558	     -0.15583052	     -2.48423890	     -0.55538161	      0.92015954	      0.19653514	    -20.05415852	      0.07244671	     -4.09056361	    -27.00132809	      1.49588673	     17.49055824	      0.00000000	     26.03776111	      3.68796179	      3.11913224	    -23.95639787	     -0.61322560	    -12.78072854	      0.00000000	    -30.34577585	     -4.24489149	      5.12116796
      5.76000000	      3.04531638	      0.54828955	     -2.60822079	     -0.54036380	      0.92097620	      0.19577607	    -18.52795210	     -1.21545431	     -5.07475572	    -30.78174214	     -2.29321641	     17.79555992	      0.00000000	     25.66629073	      4.49047628	      2.76242975	    -25.25194997	      0.65767860	    -12.83639405	      0.00000000	    -30.59745548	     -5.23409361	      4.88428466
      5.77000000	      2.88025335	      1.24491718	     -2.92704480	     -0.52568104	      0.92159164	      0.19538467	    -16.45671402	     -2.53649520	     -5.58210761	    -34.69631712	     -6.30868084	     17.64712128	      0.00000000	     25.47899117	      5.14332605	      2.08063047	    -26.34356994	      2.24530928	    -12.51863341	      0.00000000	    -30.52685616	     -6.27902859	      4.76667324
      5.78000000	      2.53334697	      1.90958995	     -3.26121839	     -0.51152471	      0.92202333	      0.19495728	    -13.97239267	     -3.79772668	     -5.90830391	    -38.66143966	    -10.39744278	     16.71416560	      0.00000000	     25.39519836	      5.75703929	      1.44024735	    -27.20782427	      3.77369597	    -12.26384732	      0.00000000	    -30.28577177	     -7.23432872	      4.67730250
      5.79000000	      2.06849517	      2.61964525	     -3.60659789	     -0.49772515	      0.92232516	      0.19448771	    -11.20562231	     -5.05689922	     -6.03147132	    -42.59120683	    -14.22790364	     15.12284526	      0.00000000	     25.33647356	      6.40818601	      0.80786934	    -27.82505791	      5.22034804	    -11.99158690	      0.00000000	    -29.89925106	     -8.17813611	      4.53760678
      5.80000000	      1.42851740	      3.37463206	     -3.89947909	     -0.48432529	      0.92235202	      0.19395769	     -8.12152772	     -6.28395668	     -6.03231929	    -46.47898592	    -17.43906083	     12.98744214	      0.00000000	     25.41409541	      7.09259143	      0.15010947	    -28.27206461	      6.57984748	    -11.58049548	      0.00000000	    -29.31823366	     -9.10032634	      4.30673452
      5.81000000	      0.88801607	      4.13212527	     -4.18312331	     -0.47123305	      0.92261241	      0.19346323	     -5.08728665	     -7.42096850	     -5.85405465	    -50.16750950	    -19.95126394	     10.32482195	      0.00000000	     25.28543713	      7.79096287	     -0.47043389	    -28.47007101	      7.74843098	    -11.26512480	      0.00000000	    -28.85652480	     -9.98629955	      4.02430323
      5.82000000	      0.43323225	      4.86722437	     -4.40835586	     -0.45836306	      0.92310435	      0.19289574	     -2.14013412	     -8.44699766	     -5.57689665	    -53.61104060	    -21.51327119	      7.45796574	      0.00000000	     24.98350046	      8.50137088	     -1.01319834	    -28.47324823	      8.76616832	    -10.97549088	      0.00000000	    -28.50207178	    -10.78557061	      3.67318249
      5.83000000	      0.09307609	      5.52768763	     -4.55872674	     -0.44563625	      0.92394091	      0.19224056	      0.63463362	     -9.31478077	     -5.24859999	    -56.73899912	    -21.98419652	      4.65416023	      0.00000000	     24.47666717	      9.18771082	     -1.42083073	    -28.31150266	      9.64927329	    -10.71473954	      0.00000000	    -28.29014046	    -11.43929971	      3.26167166
      5.84000000	     -0.16419786	      6.04798615	     -4.62788185	     -0.43296367	      0.92514789	      0.19147597	      3.22973919	     -9.96379339	     -4.90465991	    -59.48725668	    -21.38553071	      2.14183269	      0.00000000	     23.79031006	      9.78981279	     -1.65180043	    -28.00761126	     10.45572538	    -10.47862147	      0.00000000	    -28.17366008	    -11.87173510	      2.78494714
      5.85000000	     -0.20082562	      6.38735460	     -4.64088102	     -0.42039515	      0.92700447	      0.19064378	      5.47027431	    -10.38285462	     -4.61728310	    -61.78106794	    -19.89905881	     -0.04639616	      0.00000000	     22.77957160	     10.27557628	     -1.69329967	    -27.57372128	     11.09356552	    -10.34587621	      0.00000000	    -28.35737236	    -12.05774643	      2.28061865
      5.86000000	     -0.12648924	      6.49715067	     -4.51997407	     -0.40791186	      0.92933590	      0.18969017	      7.43509177	    -10.52450526	     -4.47817500	    -63.60150080	    -17.67225947	     -1.76678724	      0.00000000	     21.57543729	     10.59565637	     -1.45026672	    -27.08224792	     11.71651442	    -10.10784696	      0.00000000	    -28.71681718	    -11.92181343	      1.72375573
      5.87000000	     -0.12044008	      6.43010885	     -4.41995188	     -0.39553322	      0.93181682	      0.18877356	      9.39924710	    -10.42737564	     -4.32674466	    -65.01033057	    -14.95692146	     -3.03869206	      0.00000000	     20.39022607	     10.72460057	     -1.12508244	    -26.51911997	     12.23153957	     -9.95662583	      0.00000000	    -28.98122106	    -11.58619761	      1.28041768
      5.88000000	     -0.13703258	      6.15353751	     -4.28158361	     -0.38322953	      0.93446242	      0.18780869	     11.27044513	    -10.06735098	     -4.23784459	    -65.97996469	    -12.00480970	     -3.83379445	      0.00000000	     19.17864799	     10.65369010	     -0.65975993	    -25.90686273	     12.69393027	     -9.90344209	      0.00000000	    -29.21638801	    -10.97955586	      0.93627870
      5.89000000	     -0.15906870	      5.76463683	     -4.11462887	     -0.37098232	      0.93719018	      0.18686177	     13.05005682	     -9.56376572	     -4.23611145	    -66.54459026	     -9.12517659	     -4.38583984	      0.00000000	     17.93337677	     10.46499997	     -0.10294602	    -25.23837398	     13.09957421	     -9.88551921	      0.00000000	    -29.44148423	    -10.24051720	      0.62702319
      5.90000000	     -0.20133633	      5.33911478	     -3.90928688	     -0.35872763	      0.93984690	      0.18589942	     14.76221882	     -9.01248386	     -4.31792015	    -66.75516752	     -6.42376861	     -4.71567638	      0.00000000	     16.67845840	     10.23311164	      0.50325090	    -24.51297034	     13.47513628	     -9.89846090	      0.00000000	    -29.61706382	     -9.43373042	      0.25979942
      5.91000000	     -0.26518880	      4.90518108	     -3.66493630	     -0.34647181	      0.94237918	      0.18499658	     16.40816756	     -8.43837548	     -4.47247240	    -66.63017336	     -3.99595125	     -4.93733899	      0.00000000	     15.42534979	      9.97533745	      1.15610373	    -23.74234251	     13.78679600	     -9.91059501	      0.00000000	    -29.74140914	     -8.62283566	     -0.06438131
